# xmcd
#
# Track frame offsets:
#	150
#	12822
#	25557
#	38795
#	51555
#	63070
#	74284
#	86207
#	99242
#	110245
#	120330
#	132853
#	144564
#	152809
#	163870
#	176370
#	188262
#	200873
#	210981
#	222278
#
# Disc length: 3123 seconds
#
# Revision: 2
# Processed by: cddbd v1.5.2PL0 Copyright (c) Steve Scherf et al.
# Submitted via: EZCDAudioConverter 8.0.6.1
#
DISCID=130c3114
DTITLE=Kitty Wells - The Essential Recordings
DYEAR=2011
DGENRE=Country
TTITLE0=Release Me
TTITLE1=Cheatin's A Sin
TTITLE2=One By One
TTITLE3=I'm A Stranger In My Home
TTITLE4=As Long As I Llive
TTITLE5=Thou Shalt Not Steal
TTITLE6=Lonely Side Of Town
TTITLE7=Makin' Believe
TTITLE8=I'm In Love With You
TTITLE9=Whose Shoulder Will You Cry On
TTITLE10=You And Me
TTITLE11=There's Poison In Your Heart
TTITLE12=No One But You
TTITLE13=I've Kissed You My Last Time
TTITLE14=I'd Rather Stay Home
TTITLE15=Searching (For Someone Like You)
TTITLE16=(I'll Always Be Yor) Fraulein
TTITLE17=I Can't Stop Loving You
TTITLE18=Mommy For A Day
TTITLE19=Amigo's Guitar
EXTD=
EXTT0=
EXTT1=
EXTT2=
EXTT3=
EXTT4=
EXTT5=
EXTT6=
EXTT7=
EXTT8=
EXTT9=
EXTT10=
EXTT11=
EXTT12=
EXTT13=
EXTT14=
EXTT15=
EXTT16=
EXTT17=
EXTT18=
EXTT19=
PLAYORDER=
